<svg xmlns="http://www.w3.org/2000/svg" version="1.1" xmlns:xlink="http://www.w3.org/1999/xlink" width="1024" height="1024"><svg xmlns="http://www.w3.org/2000/svg" xmlns:xlink="http://www.w3.org/1999/xlink" viewBox="0 0 1024 1024"><defs><style>.cls-1{fill:none;}.cls-2{fill:#fff;}.cls-3,.cls-8,.cls-9{fill-rule:evenodd;}.cls-4{clip-path:url(#clip-path);}.cls-12,.cls-13,.cls-5,.cls-7{font-size:171.52px;}.cls-12,.cls-5{font-family:Montserrat-BoldItalic, Montserrat;font-weight:700;font-style:italic;}.cls-6{letter-spacing:0em;}.cls-13,.cls-7{font-family:RaceSportRegular, Race Sport;}.cls-13,.cls-8{fill:#4fc3f7;}.cls-10,.cls-12,.cls-9{fill:#0057ab;}.cls-11{clip-path:url(#clip-path-2);}</style><clipPath id="SvgjsClipPath1014"><path class="cls-1" d="M653.22,367.79c-2.88-28.15-7.46-50.06-14.72-58.68-29.92-35.42-239.5-38-263.3,0-5.82,9.32-9.9,31.16-12.64,58.73a17.74,17.74,0,0,0-15.72,17.59v34.49a17.75,17.75,0,0,0,11.64,16.65c-1.61,54.32-.31,111,2.1,139.16,0,21.75,14.61,18.15,14.61,18.15h13.7v23.48c0,9.31,9.6,16.85,21.43,16.85s21.45-7.54,21.45-16.85V593.88H591.13v23.48c0,9.31,9.6,16.85,21.44,16.85S634,626.67,634,617.36V593.88h4.5s17.2,2.35,18.3-7.89c0-28.1,1.77-90.39.31-149.18a17.69,17.69,0,0,0,12.47-16.89V385.43A17.73,17.73,0,0,0,653.22,367.79ZM426.39,314.16H587.31v24.35H426.39Zm2.29,252a22.87,22.87,0,1,1,22.88-22.87A22.87,22.87,0,0,1,428.68,566.14Zm157.77,0a22.87,22.87,0,1,1,22.87-22.87A22.89,22.89,0,0,1,586.45,566.14ZM615.53,466H398.17V352H615.53Z"></path></clipPath><clipPath id="SvgjsClipPath1013"><path class="cls-2" d="M653.22,367.79c-2.88-28.15-7.46-50.06-14.72-58.68-29.92-35.42-239.5-38-263.3,0-5.82,9.32-9.9,31.16-12.64,58.73a17.74,17.74,0,0,0-15.72,17.59v34.49a17.75,17.75,0,0,0,11.64,16.65c-1.61,54.32-.31,111,2.1,139.16,0,21.75,14.61,18.15,14.61,18.15h13.7v23.48c0,9.31,9.6,16.85,21.43,16.85s21.45-7.54,21.45-16.85V593.88H591.13v23.48c0,9.31,9.6,16.85,21.44,16.85S634,626.67,634,617.36V593.88h4.5s17.2,2.35,18.3-7.89c0-28.1,1.77-90.39.31-149.18a17.69,17.69,0,0,0,12.47-16.89V385.43A17.73,17.73,0,0,0,653.22,367.79ZM426.39,314.16H587.31v24.35H426.39Zm2.29,252a22.87,22.87,0,1,1,22.88-22.87A22.87,22.87,0,0,1,428.68,566.14Zm157.77,0a22.87,22.87,0,1,1,22.87-22.87A22.89,22.89,0,0,1,586.45,566.14ZM615.53,466H398.17V352H615.53Z"></path></clipPath></defs><g id="SvgjsG1012" data-name="Capa 2"><path class="cls-3" d="M358.43,117.69c-104-.34-196,105.32-153.53,230.78,48.87,124.06,184.32,232,303.31,320,119-88,254.43-195.91,303.31-320C854,223,762,117.35,658,117.69c-52.61.17-106.92,28.49-149.78,94.08C465.34,146.18,411,117.86,358.43,117.69Z"></path><path class="cls-3" d="M625.86,298.09a12.81,12.81,0,1,1-17.81-11.81V252.77l-31.8,17.77V310.9H440.44V270.54l-41.79-23.36,109.7-61.28,109.7,61.28v39.11A12.82,12.82,0,0,1,625.86,298.09Z"></path><circle cx="428.69" cy="543.27" r="27.65"></circle><circle cx="586.44" cy="543.27" r="27.65"></circle><rect x="398.17" y="352.02" width="217.37" height="114.01"></rect><rect x="426.39" y="314.16" width="160.93" height="24.35"></rect><g class="cls-4"><rect x="388.89" y="593.88" width="42.87" height="40.33"></rect><rect x="591.21" y="593.88" width="42.87" height="40.33"></rect></g><text class="cls-5" transform="translate(109.37 842.33)">UC<tspan class="cls-6" x="260.88" y="0">L</tspan><tspan x="365.16" y="0">A</tspan></text><text class="cls-7" transform="translate(609.32 842.33)">GO</text><path class="cls-8" d="M358.43,117.69c-104-.34-196,105.32-153.53,230.78,48.87,124.06,184.32,232,303.31,320,119-88,254.43-195.91,303.31-320C854,223,762,117.35,658,117.69c-52.61.17-106.92,28.49-149.78,94.08C465.34,146.18,411,117.86,358.43,117.69Z"></path><path class="cls-9" d="M625.86,298.09a12.81,12.81,0,1,1-17.81-11.81V252.77l-31.8,17.77V310.9H440.44V270.54l-41.79-23.36,109.7-61.28,109.7,61.28v39.11A12.82,12.82,0,0,1,625.86,298.09Z"></path><circle class="cls-10" cx="428.69" cy="543.27" r="27.65"></circle><circle class="cls-10" cx="586.44" cy="543.27" r="27.65"></circle><rect class="cls-10" x="398.17" y="352.02" width="217.37" height="114.01"></rect><rect class="cls-10" x="426.39" y="314.16" width="160.93" height="24.35"></rect><path class="cls-2" d="M653.22,367.79c-2.88-28.15-7.46-50.06-14.72-58.68-29.92-35.42-239.5-38-263.3,0-5.82,9.32-9.9,31.16-12.64,58.73a17.74,17.74,0,0,0-15.72,17.59v34.49a17.75,17.75,0,0,0,11.64,16.65c-1.61,54.32-.31,111,2.1,139.16,0,21.75,14.61,18.15,14.61,18.15h13.7v23.48c0,9.31,9.6,16.85,21.43,16.85s21.45-7.54,21.45-16.85V593.88H591.13v23.48c0,9.31,9.6,16.85,21.44,16.85S634,626.67,634,617.36V593.88h4.5s17.2,2.35,18.3-7.89c0-28.1,1.77-90.39.31-149.18a17.69,17.69,0,0,0,12.47-16.89V385.43A17.73,17.73,0,0,0,653.22,367.79ZM426.39,314.16H587.31v24.35H426.39Zm2.29,252a22.87,22.87,0,1,1,22.88-22.87A22.87,22.87,0,0,1,428.68,566.14Zm157.77,0a22.87,22.87,0,1,1,22.87-22.87A22.89,22.89,0,0,1,586.45,566.14ZM615.53,466H398.17V352H615.53Z"></path><g class="cls-11"><rect class="cls-10" x="388.89" y="593.88" width="42.87" height="40.33"></rect><rect class="cls-10" x="591.21" y="593.88" width="42.87" height="40.33"></rect></g><text class="cls-12" transform="translate(109.37 842.33)">UC<tspan class="cls-6" x="260.88" y="0">L</tspan><tspan x="365.16" y="0">A</tspan></text><text class="cls-13" transform="translate(609.32 842.33)">GO</text></g></svg><style>@media (prefers-color-scheme: light) { :root { filter: none; } }
@media (prefers-color-scheme: dark) { :root { filter: none; } }
</style></svg>